PathFileType	4	(X/Y/Z)	Patient4_TMGait_0pt4_03_left_09.trc.trc
DataRate	CameraRate	NumFrames	NumMarkers	Units	OrigDataRate	OrigDataStartFrame	OrigNumFrames
77.348066298343	77.348066298343	6	33	mm	77.348066298343	36	       141
Frame#	Time	Sacral			L.Shoulder			Chest			R.Shoulder			Neck			R.ASIS			L.ASIS			R.Thigh.Superior			R.Thigh.Lateral			R.Thigh.Inferior			R.Patella			L.Thigh.Superior			L.Thigh.Lateral			L.Thigh.Inferior			L.Patella			L.Shank.Superior			L.Shank.Lateral			L.Shank.Inferior			R.Shank.Superior			R.Shank.Lateral			R.Shank.Inferior			R.Heel			R.Midfoot.Superior			R.Midfoot.Lateral			R.Toe			L.Heel			L.Midfoot.Lateral			L.Midfoot.Superior			L.Toe			L.Elbow			L.Wrist			R.Elbow			R.Wrist			
		X1	Y1	Z1	X2	Y2	Z2	X3	Y3	Z3	X4	Y4	Z4	X5	Y5	Z5	X6	Y6	Z6	X7	Y7	Z7	X8	Y8	Z8	X9	Y9	Z9	X10	Y10	Z10	X11	Y11	Z11	X12	Y12	Z12	X13	Y13	Z13	X14	Y14	Z14	X15	Y15	Z15	X16	Y16	Z16	X17	Y17	Z17	X18	Y18	Z18	X19	Y19	Z19	X20	Y20	Z20	X21	Y21	Z21	X22	Y22	Z22	X23	Y23	Z23	X24	Y24	Z24	X25	Y25	Z25	X26	Y26	Z26	X27	Y27	Z27	X28	Y28	Z28	X29	Y29	Z29	X30	Y30	Z30	X31	Y31	Z31	X32	Y32	Z32	X33	Y33	Z33	

36	11.882500000000	821.498300990851	1007.966329287019	488.832756911840	964.599300312034	1427.023382606250	269.729237337066	1094.906959001268	1365.031785301126	413.042438471395	1041.778283431383	1442.867855257354	596.904176961262	971.281827388098	1493.706046417849	425.492461303577	1061.116405433777	940.341325656409	577.950849501771	1015.593819747321	959.952496604443	306.492130761628	1069.285911717741	727.738010680712	553.130796714480	978.198393327963	628.402472916936	624.434136392547	1039.408731069940	564.004656451021	541.968845758548	1026.714025631393	467.733832134145	555.724350049699	1085.474603531858	762.943590947992	336.082768724705	1011.473064150451	637.812952533235	274.886980177927	1108.220480014916	569.425739680153	332.442382744303	1116.440592124871	498.710789909882	338.059391592883	1092.129556283829	425.264899523199	328.641738592338	1005.882986698180	308.421537805986	277.318661159993	1065.855704996602	196.565678432142	340.708352122510	970.973943485053	391.108604820949	566.434641145405	876.670883341632	315.805068352413	639.452721160931	882.447734452567	210.573458025155	578.432108776378	707.693050966218	75.833525019870	567.778886690137	887.119693394695	100.450896427999	588.570424777786	794.823549578021	51.810532894890	633.043702741220	998.678707305971	37.760593840567	604.595727643446	947.781965620252	38.642994505664	383.249130397431	1018.012325848343	35.870605248361	299.494947803525	1101.590873556714	97.534610592515	323.499474317055	1229.146126843903	46.673304777300	288.707558398963	872.089237510046	1083.039514892586	172.916821090693	931.596699918567	826.449429185915	157.467706529564	1117.947769312251	1100.721187622452	712.085195096223	1333.805579713689	980.682849781597	638.926573051319	
37	11.895428571429	821.313521630166	1008.422049342448	485.296054024908	965.198154143947	1427.875574343759	266.659297162363	1094.753262615378	1365.832673770231	410.619810610537	1040.643734210971	1443.557804748961	594.206121616387	971.035868233940	1494.399196085669	422.551972124761	1060.412468383819	941.121052994275	575.036760573561	1016.008649299164	960.645197129234	303.593752782104	1072.342903229786	729.188277919419	550.355329268073	983.585791029768	628.460688382947	621.888647537718	1046.582272934068	564.746925058640	539.670994658983	1035.208681622203	466.709774323270	554.898731223334	1084.726495464651	762.341659479703	332.314812652487	1008.507941958049	637.686844275416	272.807018453826	1104.941458461727	568.635307435866	329.909002880768	1112.656829436090	498.254148026740	336.283633109983	1088.224505331861	424.895322382146	327.173640585201	1001.645518720801	308.153477590023	276.379021608679	1061.184695754094	196.389640321692	340.235920024799	976.920191195401	391.169795706345	565.579018774715	879.899138839161	319.048524204494	638.261537428159	883.532255776888	213.153033002404	578.426254848978	705.201973332011	83.591951651180	567.863264207161	885.269648108836	101.715264695746	588.913111747812	791.284828916390	56.132183000202	633.004055248195	993.792360962222	37.333233064002	604.443174456057	942.646421321922	38.640257037718	383.204459279587	1012.847372785146	35.799541034675	299.418229640175	1096.431439292000	97.453469549672	323.409087819487	1224.033826345947	46.514875937338	288.609351951154	875.981298996211	1083.358851478338	167.715198684421	941.942024384022	828.319215486561	152.105908248615	1110.395571598764	1100.165764896927	710.935567323871	1319.564635392389	964.969823871551	642.927693632377	
38	11.908357142857	820.946328741998	1008.759620353618	481.747060776871	965.991870639761	1428.636878324325	263.611865774939	1094.593408886213	1366.479544425285	408.361343003280	1039.344148564973	1444.105773412272	591.613165975757	970.810631462750	1494.989483088860	419.656950133775	1059.467239336729	941.793901198059	572.233747909887	1016.329600461492	961.243838713943	300.821427801503	1075.841903299797	730.813443783264	547.617458707162	989.755780345180	628.507508850164	619.361323476811	1054.719795442458	565.661294229289	537.412163404006	1044.728602280972	465.896170537291	554.010296006012	1083.738319599738	761.569758234868	328.633923145024	1005.396534641074	637.538807120219	270.687356719684	1101.434131906416	567.827793111299	327.478921216399	1108.612413144891	497.757468789691	334.499058319583	1084.089143940800	424.500104358469	325.675814382525	997.225801179272	307.822017326925	275.423835219999	1056.390110705968	196.189682443369	339.752943921162	983.899445131338	391.383627200954	564.688509926429	884.178968723677	322.705700618580	637.033008529133	885.459197625831	216.204351071222	578.433821638504	703.442792372782	92.636253115331	567.972466642537	883.926008181235	103.363371061079	589.268958134011	788.162138222220	61.410267513387	632.986785857263	988.893890391185	36.809046989849	604.309099929837	937.428507192117	38.624457470079	383.182303306059	1007.597303617121	35.709682111492	299.357762395876	1091.200807099159	97.329956550829	323.341194324025	1218.845355159984	46.295255020079	288.532249587788	880.054981311118	1083.696607695163	162.360975332334	952.651631298480	830.410351362342	146.828311782276	1102.879043522581	1099.698303084956	709.874890172852	1304.296541333117	949.919901639678	646.994446249783	
39	11.921285714286	820.388361225973	1008.948128167061	478.212251877473	966.950740588306	1429.270079345562	260.624320705405	1094.411147358367	1366.939775852906	406.291073366093	1037.877212055967	1444.480307814765	589.155134284439	970.596286949266	1495.449681401790	416.838636228858	1058.303189430972	942.334028672555	569.556693339376	1016.541699236862	961.735684940907	298.172871411817	1079.723017147985	732.625555501633	544.934054346694	996.628665412089	628.591415146991	616.872167811247	1063.698698847257	566.799229984223	535.212802458167	1055.140518779386	465.382725023591	553.023702393727	1082.542745416979	760.695699730495	325.147092977790	1002.313497307947	637.397556904501	268.505021439652	1097.838858313488	567.038816412357	325.170418981406	1104.444285635972	497.229537516565	332.700667935571	1079.852327116821	424.076531574209	324.143070631416	992.744395014543	307.441048648837	274.406208522063	1051.541588743733	195.966718173568	339.243434033616	991.830312672324	391.806347675192	563.727382054240	889.487797531574	326.790953560974	635.755841200765	888.220603477515	219.765526095545	578.417836391266	702.510229294441	102.997524593177	568.083680329959	883.093802284053	105.494403004940	589.604758324266	785.525775214261	67.737484079228	632.977695694851	984.008739379837	36.163120290954	604.210266578422	932.161270760934	38.600859395472	383.162684695510	1002.298991496792	35.608952646611	299.296737138391	1085.930602906463	97.181737069244	323.278327363435	1213.614842327535	46.038545129682	288.467502080276	884.364781039378	1084.012412378369	156.872495377767	963.709818547492	832.678535072382	141.665037859170	1095.354389569924	1099.247089751286	708.900196321586	1288.086111433146	935.664187036026	651.072470309256	
40	11.934214285714	819.638217336038	1008.970297298958	474.714104282055	968.028764049720	1429.749577192612	257.735962966527	1094.186632378763	1367.198892085040	404.426407627398	1036.243970907812	1444.664314431161	586.859064433069	970.380711043869	1495.765330574322	414.127241807438	1056.956491422592	942.730257759143	567.017011305299	1016.638509602806	962.117181358111	295.641614268200	1083.894278470229	734.639205545490	542.315603144124	1004.079312587092	628.773973541340	614.441377439318	1073.340910570714	568.219108030829	533.087960364338	1066.270425645980	465.255595633283	551.915170777189	1081.186758024518	759.786106056957	321.923090533983	999.385955815664	637.275923800205	266.256945198794	1094.280991559735	566.290535976885	322.977913446818	1100.284602837073	496.676854757625	330.883187975116	1075.632464936045	423.621463070945	322.573747035154	988.299752318680	307.026028577284	273.298685100076	1046.700032639008	195.721543442141	338.694704599604	1000.585721556579	392.496710371183	562.667900299463	895.748997167809	331.303228443273	634.418403949203	891.774218562529	223.855255886920	578.337274089964	702.478357320975	114.624080790270	568.154634043357	882.771679836297	108.193885172219	589.877869498230	783.446344353918	75.149598414818	632.949710505725	979.189177507936	35.389682926118	604.157615180197	926.874591005424	38.574824770897	383.130809173492	996.984818078307	35.503942898792	299.222927458061	1080.649588957818	97.024106562624	323.205207332905	1208.372004581587	45.765381415205	288.407494411028	888.966133960931	1084.272847358501	151.278307965166	975.100815332156	835.083089277111	136.645318788014	1087.757813637902	1098.754178992188	708.007209913575	1271.030453173395	922.307059047987	655.123763636660	
41	11.947142857143	818.702299949570	1008.825665207591	471.270852267658	969.171092966755	1430.064922822470	254.983651824035	1093.899524285323	1367.263178217442	402.777765340425	1034.447935005826	1444.657903488419	584.746885373105	970.150427521168	1495.937179768606	411.548515746847	1055.474419079671	942.988154411181	564.625481691511	1016.623650616801	962.393925388328	293.222514215001	1088.239724394972	736.868610181518	539.767809757447	1011.943247424431	629.124021611995	612.089459774370	1083.424579246290	569.979154335346	531.048882324042	1077.912402317411	465.589391947208	550.677838282838	1079.726652667375	758.896852417003	318.988054093806	996.685050666996	637.173579633440	263.960678067986	1090.858242008653	565.591972217270	320.878778497961	1096.245979474792	496.104059382074	329.044439020497	1071.525174710989	423.132501743690	320.972689445128	983.960775984827	306.593154857535	272.093987651140	1041.911205479704	195.455162430674	338.099829082577	1010.000044084351	393.510054504840	561.496983870433	902.835979711167	336.221403290644	633.012530641136	896.048688212142	228.464429229096	578.153556773535	703.394744068932	127.361878457478	568.128931856875	882.959858892690	111.514066278321	590.040029375696	781.994937287389	83.600532238167	632.864552196883	974.524519615400	34.511566447361	604.151712590291	921.591525952422	38.551033589972	383.077607898230	991.679027068606	35.399669187510	299.129135992078	1075.380118109907	96.868619750446	323.110672780938	1203.138817566999	45.491306656574	288.346705367106	893.908475938138	1084.456254991657	145.619130601911	986.805414120765	837.592599344048	131.798049552157	1080.014049489780	1098.183761356500	707.189794776747	1253.234621804144	909.927393424036	659.124744931251	
